#!OML:ASF Y:\EmotionMaleHayes\Project 1\Capture day 1\Session 1\Male1.ASF
:FULLY-SPECIFIED
:DEGREES
1069
root 11.7309 15.8513 10.7961 190.105 -1.79365 -191.937
lowerback 13.362 -0.793965 -11.8879
upperback 6.25248 -3.40689 -0.118387
thorax -0.17127 -2.35001 7.00985
lowerneck -24.851 4.02848 6.34489
upperneck 28.5115 4.57489 -1.44994
head 14.0889 2.72189 -0.707505
rclavicle -1.37161e-014 -1.35174e-014
rhumerus -66.7578 15.7733 -71.2266
rradius 44.5141
rwrist -15.168
rhand -23.148 -41.1396
rfingers 7.12502
rthumb 3.30016 -71.0938
lclavicle -1.37161e-014 -1.35174e-014
lhumerus 1.28842 -30.5608 58.1329
lradius 79.0283
lwrist 15.3829
lhand -35.4137 -29.4258
lfingers 7.12502
lthumb -8.54403 0.38136
rfemur -43.3455 -7.77313 13.3012
rtibia 52.7356
rfoot -25.5101 -9.31096
rtoes 6.21005
lfemur 17.0534 3.6487 -24.7501
ltibia 25.6138
lfoot -5.67307 9.51144
ltoes -29.2948
1070
root 11.7417 15.9534 10.5593 189.853 -1.36477 -191.087
lowerback 13.4175 -0.558096 -11.4681
upperback 6.23418 -3.03395 0.0271132
thorax -0.315811 -2.14238 6.89312
lowerneck -24.9937 3.87553 6.26147
upperneck 28.7462 4.31604 -1.18664
head 14.1991 2.65034 -0.631837
rclavicle 4.57205e-015 3.97569e-014
rhumerus -65.4294 15.15 -72.2139
rradius 43.8294
rwrist -14.2895
rhand -22.0422 -40.2873
rfingers 7.12502
rthumb 4.36802 -70.2223
lclavicle 4.57205e-015 3.97569e-014
lhumerus -1.31803 -31.9074 60.0905
lradius 79.8201
lwrist 15.6742
lhand -34.758 -29.4356
lfingers 7.12502
lthumb -7.91124 0.396338
rfemur -40.8516 -6.64102 14.1076
rtibia 50.5351
rfoot -25.59 -9.24308
rtoes 6.39083
lfemur 15.0977 3.40541 -24.0632
ltibia 29.8395
lfoot -3.06221 10.2426
ltoes -18.2841
1071
root 11.7501 16.0587 10.3204 189.552 -0.961342 -190.222
lowerback 13.5519 -0.300066 -10.9367
upperback 6.19477 -2.62975 0.119718
thorax -0.537592 -1.91122 6.65447
lowerneck -25.0058 3.75154 6.4904
upperneck 28.9225 4.08187 -1.2279
head 14.2759 2.58169 -0.729075
rclavicle -1.25234e-014 5.96354e-015
rhumerus -64.0478 14.1853 -73.2316
rradius 43.3137
rwrist -13.8778
rhand -21.912 -39.705
rfingers 7.12502
rthumb 4.49371 -69.6373
lclavicle -1.25234e-014 5.96354e-015
lhumerus -3.97028 -33.2481 62.3889
lradius 80.0851
lwrist 15.8001
lhand -34.1772 -29.3747
lfingers 7.12502
lthumb -7.35057 0.47761
rfemur -38.3064 -5.86555 14.9595
rtibia 48.3211
rfoot -25.6537 -8.93215
rtoes 6.83426
lfemur 12.989 3.31262 -23.3938
ltibia 34.0446
lfoot 0.611286 10.7102
ltoes -15.8028
1072
root 11.7576 16.162 10.0817 189.183 -0.408503 -189.682
lowerback 13.7436 0.0266724 -10.6544
upperback 6.12426 -2.18043 0.107534
thorax -0.817821 -1.65964 6.43755
lowerneck -24.7838 3.61122 6.68862
upperneck 28.8909 3.89925 -1.44736
head 14.2172 2.50156 -0.889594
rclavicle 2.10712e-014 -8.74653e-015
rhumerus -62.7027 13.2414 -74.3117
rradius 43.0062
rwrist -13.6971
rhand -22.8673 -39.2997
rfingers 7.12502
rthumb 3.57128 -69.2495
lclavicle 2.10712e-014 -8.74653e-015
lhumerus -6.9184 -34.7136 64.8826
lradius 80.2785
lwrist 16.0177
lhand -33.7447 -28.9776
lfingers 7.12502
lthumb -6.93308 0.888854
rfemur -35.734 -5.05833 15.4185
rtibia 46.1516
rfoot -25.6625 -8.67722
rtoes 6.40804
lfemur 10.8109 3.4746 -23.0784
ltibia 38.0719
lfoot 4.53721 10.0168
ltoes -17.7686
1073
root 11.7632 16.2659 9.84869 188.819 0.186531 -188.929
lowerback 13.9042 0.370601 -10.0866
upperback 6.06975 -1.66068 0.157158
thorax -1.08079 -1.37012 6.10889
lowerneck -24.6777 3.44214 6.59823
upperneck 29.0353 3.73379 -1.45116
head 14.2466 2.43409 -0.907079
rclavicle -4.17448e-015 7.15625e-015
rhumerus -61.2673 12.3633 -75.2667
rradius 42.8468
rwrist -12.6295
rhand -22.3805 -38.4083
rfingers 7.12502
rthumb 4.04135 -68.3498
lclavicle -4.17448e-015 7.15625e-015
lhumerus -9.89736 -36.1274 67.4317
lradius 80.236
lwrist 16.1007
lhand -33.2393 -28.2077
lfingers 7.12502
lthumb -6.44526 1.67425
rfemur -33.1534 -3.96703 16.1289
rtibia 43.9853
rfoot -25.8202 -8.37289
rtoes 6.85612
lfemur 8.57254 3.56655 -22.532
ltibia 41.894
lfoot 7.03924 9.11612
ltoes -13.5927
1074
root 11.7658 16.369 9.61828 188.471 0.736219 -187.622
lowerback 14.0688 -0.380823 -9.23552
upperback 6.06303 -0.840829 0.259857
thorax -1.22955 -0.223387 5.60661
lowerneck -24.5969 3.2087 6.42571
upperneck 29.06 3.43349 -1.30204
head 14.2179 2.31572 -0.87609
rclavicle -1.05356e-014 -7.95139e-016
rhumerus -59.6181 11.3329 -76.1696
rradius 42.7866
rwrist -11.4022
rhand -21.3883 -37.2082
rfingers 7.12502
rthumb 4.99942 -67.1292
lclavicle -1.05356e-014 -7.95139e-016
lhumerus -12.8402 -37.279 70.1763
lradius 79.711
lwrist 15.9728
lhand -32.5665 -27.5248
lfingers 7.12502
lthumb -5.7957 2.37594
rfemur -30.5632 -2.92289 17.567
rtibia 41.8218
rfoot -25.9513 -8.10528
rtoes 6.81692
lfemur 6.34644 3.66853 -21.3386
ltibia 45.4786
lfoot 5.41827 7.95216
ltoes -13.8339
1075
root 11.7671 16.4675 9.39108 188.145 1.17023 -185.73
lowerback 14.3424 -0.16205 -7.57851
upperback 6.0124 -0.380309 0.645538
thorax -1.54869 0.0313058 5.01278
lowerneck -24.5331 3.0519 6.32075
upperneck 29.1114 3.24926 -1.25015
head 14.2142 2.23981 -0.872762
rclavicle 2.18663e-015 1.47101e-014
rhumerus -58.0052 10.6424 -77.3615
rradius 43.0048
rwrist -10.7905
rhand -21.6381 -36.3831
rfingers 7.12502
rthumb 4.75818 -66.3097
lclavicle 2.18663e-015 1.47101e-014
lhumerus -16.0521 -37.9111 73.2911
lradius 78.7976
lwrist 15.8351
lhand -31.7442 -27.0528
lfingers 7.12502
lthumb -5.00175 2.86817
rfemur -27.9424 -2.08581 19.7377
rtibia 39.5651
rfoot -25.8918 -7.96633
rtoes 5.51773
lfemur 4.08177 3.84138 -19.4129
ltibia 48.7017
lfoot 3.59201 6.80523
ltoes -14.4771
1076
root 11.7647 16.5639 9.16363 187.803 1.60692 -183.582
lowerback 14.6787 -0.0129517 -5.66655
upperback 5.94656 0.0448684 1.11641
thorax -1.89072 0.271199 4.36083
lowerneck -24.3209 2.98179 6.25463
upperneck 29.0758 3.21719 -1.29559
head 14.1513 2.21743 -0.88825
rclavicle -7.55382e-015 -1.98785e-015
rhumerus -56.4253 10.6074 -78.8377
rradius 43.5036
rwrist -10.9009
rhand -22.0471 -35.8305
rfingers 7.12502
rthumb 4.36326 -65.7655
lclavicle -7.55382e-015 -1.98785e-015
lhumerus -19.2778 -38.1301 76.4611
lradius 77.5486
lwrist 15.8213
lhand -30.8784 -26.5973
lfingers 7.12502
lthumb -4.16569 3.34171
rfemur -25.2091 -1.43392 22.1893
rtibia 37.1575
rfoot -25.8732 -7.4895
rtoes 5.57268
lfemur 1.82829 4.00557 -17.2024
ltibia 51.3826
lfoot 2.32028 5.71952
ltoes -13.5089
1077
root 11.753 16.6537 8.93091 187.493 2.04489 -181.657
lowerback 14.9083 0.0979534 -3.87567
upperback 5.91432 0.438748 1.48332
thorax -2.108 0.49227 3.66532
lowerneck -24.0118 2.94507 6.26088
upperneck 28.9477 3.19456 -1.30584
head 14.0298 2.21053 -0.901429
rclavicle 5.76476e-015 2.14687e-014
rhumerus -54.9426 11.2098 -80.6968
rradius 44.3866
rwrist -11.6181
rhand -22.0171 -35.5673
rfingers 7.12502
rthumb 4.39221 -65.5018
lclavicle 5.76476e-015 2.14687e-014
lhumerus -22.4296 -38.2698 79.4092
lradius 76.1509
lwrist 15.9403
lhand -30.476 -25.9169
lfingers 7.12502
lthumb -3.7771 4.02935
rfemur -22.4752 -1.21002 24.3594
rtibia 34.6681
rfoot -25.7132 -7.04124
rtoes 4.09631
lfemur -0.48724 4.18828 -15.276
ltibia 53.5715
lfoot 1.53696 5.12095
ltoes -12.3909
1078
root 11.7366 16.7305 8.69688 187.289 2.40973 -179.934
lowerback 14.9871 0.232551 -2.14561
upperback 5.8936 0.870975 1.73185
thorax -2.2096 0.729658 2.87092
lowerneck -23.9444 2.87997 6.51267
upperneck 29.0046 3.05464 -1.40513
head 14.0411 2.1727 -1.0096
rclavicle -2.18663e-014 -2.54444e-014
rhumerus -53.0152 10.3936 -81.7896
rradius 44.6476
rwrist -10.3774
rhand -21.5597 -34.5535
rfingers 7.12502
rthumb 4.83388 -64.4783
lclavicle -2.18663e-014 -2.54444e-014
lhumerus -25.3573 -38.6154 82.069
lradius 74.6103
lwrist 16.1801
lhand -30.3667 -25.2183
lfingers 7.12502
lthumb -3.67157 4.72978
rfemur -19.7473 -0.742128 26.1542
rtibia 32.129
rfoot -25.7309 -6.16325
rtoes 5.9
lfemur -2.98731 4.46 -13.5348
ltibia 55.398
lfoot 0.605623 4.95286
ltoes -10.4896
1079
root 11.7241 16.8017 8.46747 187.263 2.99987 -178.896
lowerback 14.9445 0.533381 -1.27126
upperback 5.81255 1.38616 1.87497
thorax -2.29747 0.991269 2.43832
lowerneck -24.0052 2.73468 6.2255
upperneck 29.0616 2.81428 -0.953112
head 14.0544 2.10881 -0.822737
rclavicle -8.94531e-015 -5.96354e-015
rhumerus -51.2386 10.4321 -83.1502
rradius 45.3332
rwrist -9.95401
rhand -21.3411 -33.6705
rfingers 7.12502
rthumb 5.04497 -63.5904
lclavicle -8.94531e-015 -5.96354e-015
lhumerus -28.0042 -38.7096 84.7046
lradius 72.6813
lwrist 16.3649
lhand -29.9018 -24.9111
lfingers 7.12502
lthumb -3.22266 5.04428
rfemur -17.372 -0.308623 27.2274
rtibia 29.7753
rfoot -25.7059 -5.56915
rtoes 5.14862
lfemur -5.73071 4.91126 -12.5924
ltibia 56.9183
lfoot -0.762329 4.96806
ltoes -7.40069
1080
root 11.723 16.8692 8.24356 187.329 3.69991 -178.017
lowerback 14.9104 0.852655 -0.930964
upperback 5.68823 1.84931 2.12923
thorax -2.43481 1.21767 2.43299
lowerneck -24.0487 2.66984 6.27429
upperneck 29.1186 2.71249 -0.987094
head 14.0852 2.06898 -0.862853
rclavicle -9.93923e-016 2.82274e-014
rhumerus -49.4892 11.3039 -84.601
rradius 46.2375
rwrist -10.0199
rhand -21.5326 -33.8258
rfingers 7.12502
rthumb 4.86009 -63.75
lclavicle -9.93923e-016 2.82274e-014
lhumerus -30.6761 -38.1517 87.4486
lradius 70.4965
lwrist 16.5766
lhand -29.7112 -24.8395
lfingers 7.12502
lthumb -3.0386 5.1186
rfemur -15.2679 -0.0885842 28.1913
rtibia 27.5645
rfoot -25.5841 -4.90029
rtoes 4.09484
lfemur -8.59515 5.49292 -11.7546
ltibia 58.2023
lfoot -2.45951 4.95258
ltoes -5.09024
1081
root 11.7196 16.9336 8.014 186.812 3.83476 -176.053
lowerback 15.5071 0.782965 0.656803
upperback 5.77504 2.08721 2.71279
thorax -2.64941 1.37618 2.09299
lowerneck -24.2427 2.75066 6.41099
upperneck 29.3706 2.87175 -1.25776
head 14.2497 2.12087 -0.9608
rclavicle 1.33186e-014 1.90833e-014
rhumerus -47.7321 12.9365 -86.2836
rradius 47.2246
rwrist -10.4256
rhand -22.2348 -34.5455
rfingers 7.12502
rthumb 4.18208 -64.4842
lclavicle 1.33186e-014 1.90833e-014
lhumerus -33.2401 -37.0471 90.008
lradius 68.2689
lwrist 16.8665
lhand -29.8353 -24.7528
lfingers 7.12502
lthumb -3.15839 5.20358
rfemur -12.2616 -0.129354 30.2346
rtibia 25.0001
rfoot -25.3181 -4.73988
rtoes 2.98683
lfemur -10.7974 5.62351 -9.63423
ltibia 59.1041
lfoot -4.22193 5.21229
ltoes -5.45969
1082
root 11.7247 16.9787 7.78223 186.59 4.31183 -173.628
lowerback 15.7332 0.831165 2.58575
upperback 5.86829 2.55823 3.41054
thorax -2.646 1.6574 1.64898
lowerneck -24.4103 2.78492 6.35083
upperneck 29.55 3.01163 -1.44738
head 14.3718 2.15021 -0.997923
rclavicle -2.44505e-014 -5.08889e-014
rhumerus -45.6948 14.3441 -87.5784
rradius 48.0464
rwrist -10.7931
rhand -22.8398 -34.3932
rfingers 7.12502
rthumb 3.59778 -64.3425
lclavicle -2.44505e-014 -5.08889e-014
lhumerus -35.4705 -35.7048 92.2741
lradius 65.9054
lwrist 16.9064
lhand -29.6878 -24.6571
lfingers 7.12502
lthumb -3.01591 5.30133
rfemur -9.46051 0.855472 33.0934
rtibia 22.555
rfoot -25.2124 -4.80153
rtoes 3.32704
lfemur -13.0726 6.49075 -6.80992
ltibia 59.6155
lfoot -5.72717 5.39338
ltoes -7.31574
